<svg xmlns="http://www.w3.org/2000/svg" xmlns:xlink="http://www.w3.org/1999/xlink" viewBox="0 0 656.84 325"><defs><style>.cls-1{fill:none;}.cls-2{fill:url(#linear-gradient);}.cls-3{fill:#003;}.cls-4{fill:url(#linear-gradient-2);}.cls-5{fill:#c7e5f2;}.cls-6{fill:#a3a3cc;}.cls-7{fill:url(#linear-gradient-3);}.cls-8{fill:url(#linear-gradient-4);}.cls-9{fill:url(#linear-gradient-5);}.cls-10{fill:url(#linear-gradient-6);}.cls-11{fill:url(#linear-gradient-7);}.cls-12{fill:url(#linear-gradient-8);}.cls-13{fill:url(#linear-gradient-9);}.cls-14{fill:url(#linear-gradient-10);}.cls-15{fill:#0e3772;}.cls-16{fill:url(#linear-gradient-11);}.cls-17{fill:url(#linear-gradient-12);}.cls-18{fill:url(#linear-gradient-13);}.cls-19{fill:url(#linear-gradient-14);}.cls-20{fill:url(#linear-gradient-15);}.cls-21{fill:url(#linear-gradient-16);}.cls-22{fill:url(#linear-gradient-17);}.cls-23{fill:#0c9;}.cls-24{fill:url(#linear-gradient-18);}.cls-25{fill:url(#linear-gradient-19);}.cls-26{fill:#ccf;}.cls-27{fill:#00a576;}.cls-28{clip-path:url(#clip-path);}.cls-29{fill:#00bf84;}.cls-30{fill:#0c8;}.cls-31{fill:#00d890;}.cls-32{fill:#00e599;}.cls-33{fill:#00f2a1;}.cls-34{fill:#e6e6ff;}</style><linearGradient id="linear-gradient" x1="42.11" y1="295.63" x2="50.45" y2="295.63" gradientTransform="matrix(1, 0.05, -0.05, 1, 18.01, 15.23)" gradientUnits="userSpaceOnUse"><stop offset="0" stop-color="#fac0c0"/><stop offset="0.25" stop-color="#f8b9bc"/><stop offset="0.62" stop-color="#f3a6b2"/><stop offset="1" stop-color="#eb8ba3"/></linearGradient><linearGradient id="linear-gradient-2" x1="-15.7" y1="211.74" x2="-7.37" y2="211.74" gradientTransform="matrix(0.98, 0.2, -0.2, 0.98, 59.99, 107.77)" xlink:href="#linear-gradient"/><linearGradient id="linear-gradient-3" y1="262.13" x2="25.42" y2="262.13" gradientUnits="userSpaceOnUse"><stop offset="0" stop-color="#2d5aa4"/><stop offset="1" stop-color="#134191"/></linearGradient><linearGradient id="linear-gradient-4" x1="10.45" y1="259.34" x2="56.4" y2="259.34" gradientUnits="userSpaceOnUse"><stop offset="0" stop-color="#2450a2"/><stop offset="1" stop-color="#406bb2"/></linearGradient><linearGradient id="linear-gradient-5" x1="1.69" y1="181.88" x2="40.88" y2="181.88" gradientUnits="userSpaceOnUse"><stop offset="0" stop-color="#59b3e4"/><stop offset="1" stop-color="#4fc7ea"/></linearGradient><linearGradient id="linear-gradient-6" x1="22.76" y1="143.43" x2="40.58" y2="143.43" gradientUnits="userSpaceOnUse"><stop offset="0" stop-color="#eb8ba3"/><stop offset="1" stop-color="#fac0c0"/></linearGradient><linearGradient id="linear-gradient-7" x1="26.15" y1="174.36" x2="61.61" y2="174.36" gradientUnits="userSpaceOnUse"><stop offset="0" stop-color="#4fc7ea"/><stop offset="1" stop-color="#59b3e4"/></linearGradient><linearGradient id="linear-gradient-8" x1="26.05" y1="178.11" x2="39.91" y2="178.11" gradientUnits="userSpaceOnUse"><stop offset="0" stop-color="#2c7fc6"/><stop offset="1" stop-color="#3694d1"/></linearGradient><linearGradient id="linear-gradient-9" x1="14.5" y1="151.35" x2="37.58" y2="151.35" xlink:href="#linear-gradient-8"/><linearGradient id="linear-gradient-10" x1="57.85" y1="173.73" x2="67.79" y2="173.73" gradientUnits="userSpaceOnUse"><stop offset="0" stop-color="#ec8fa5"/><stop offset="0.27" stop-color="#f1a0af"/><stop offset="0.72" stop-color="#f8b7bb"/><stop offset="1" stop-color="#fac0c0"/></linearGradient><linearGradient id="linear-gradient-11" x1="114.44" y1="291.76" x2="122.77" y2="291.76" xlink:href="#linear-gradient"/><linearGradient id="linear-gradient-12" x1="86.27" y1="312.79" x2="95.24" y2="312.79" gradientTransform="matrix(1, 0, 0, 1, 0, 0)" xlink:href="#linear-gradient"/><linearGradient id="linear-gradient-13" x1="85.64" y1="261.6" x2="113.55" y2="261.6" xlink:href="#linear-gradient-3"/><linearGradient id="linear-gradient-14" x1="103.8" y1="261.66" x2="137.54" y2="261.66" xlink:href="#linear-gradient-4"/><linearGradient id="linear-gradient-15" x1="137.09" y1="226.09" x2="146.74" y2="226.09" gradientTransform="matrix(1, 0, 0, 1, 0, 0)" xlink:href="#linear-gradient"/><linearGradient id="linear-gradient-16" x1="103.87" y1="146.75" x2="120.86" y2="146.75" gradientUnits="userSpaceOnUse"><stop offset="0" stop-color="#fac0c0"/><stop offset="0.31" stop-color="#f4abb4"/><stop offset="0.73" stop-color="#ed94a8"/><stop offset="1" stop-color="#eb8ba3"/></linearGradient><linearGradient id="linear-gradient-17" x1="66.98" y1="190.04" x2="144.46" y2="190.04" gradientUnits="userSpaceOnUse"><stop offset="0" stop-color="#00bf84"/><stop offset="0.57" stop-color="#00d791"/><stop offset="1" stop-color="#00e599"/></linearGradient><linearGradient id="linear-gradient-18" x1="92.42" y1="197.95" x2="96.91" y2="197.95" xlink:href="#linear-gradient-6"/><linearGradient id="linear-gradient-19" x1="136.57" y1="225.92" x2="143.35" y2="225.92" xlink:href="#linear-gradient-16"/><clipPath id="clip-path"><polygon class="cls-1" points="656.84 325 256.84 325 406.84 25 406.84 25 656.84 325"/></clipPath></defs><title>Capacity building model</title><g id="objects"><polygon class="cls-2" points="52.29 310.65 52.46 315.6 44.81 315.19 44.4 310.23 52.29 310.65"/><path class="cls-3" d="M44.06,314.64h9.56v2.5l6.91,4.95h2.8a1.45,1.45,0,0,1,1.46,1.45h0A1.46,1.46,0,0,1,63.33,325H45.19a1.13,1.13,0,0,1-1.13-1.13Z"/><polygon class="cls-4" points="10.45 311.25 9.89 316.16 2.39 314.63 2.71 309.67 10.45 311.25"/><path class="cls-3" d="M1.51,314.64h9.55v2.5L18,322.09h2.81a1.46,1.46,0,0,1,1.46,1.45h0A1.46,1.46,0,0,1,20.78,325H2.64a1.12,1.12,0,0,1-1.13-1.13Z"/><polygon class="cls-5" points="64.9 170.8 48.54 164.82 35.43 178.38 50.06 185.11 64.9 170.8"/><path class="cls-6" d="M59.55,170.83,49,167a.21.21,0,0,0-.25.12.19.19,0,0,0,.12.24l10.53,3.85h.06a.19.19,0,0,0,.18-.12A.19.19,0,0,0,59.55,170.83Z"/><path class="cls-6" d="M57.91,172.91l-10.52-3.85a.19.19,0,1,0-.14.36l10.53,3.85h.07a.19.19,0,0,0,.18-.13A.18.18,0,0,0,57.91,172.91Z"/><path class="cls-6" d="M56.14,175l-10.52-3.85a.19.19,0,0,0-.25.11.19.19,0,0,0,.11.25L56,175.4h.07a.19.19,0,0,0,.18-.13A.18.18,0,0,0,56.14,175Z"/><polygon class="cls-7" points="14.65 212.89 10.45 212.89 3.14 214.23 5.65 254.66 0 311.37 12.08 311.37 22.91 252.42 25.42 222.09 19.58 215.18 14.65 212.89"/><path class="cls-8" d="M40.88,207.31l-30.43,5.58,1,2.29,7.17,2.69,6.56,7.72L41,248.86l1.59,62.51h11L56.38,248a17.36,17.36,0,0,0-1.4-7.73Z"/><path class="cls-9" d="M14.52,152.59s-18,22.72-11.38,61.64c0,0,20.07,4.73,37.74-6.92V196s-2.33-34.74-3.3-38.38c0,0-2.92-6.35-8.91-8.51S14.52,152.59,14.52,152.59Z"/><path class="cls-10" d="M37.69,136.27s.6,3.25.68,4.37a23.5,23.5,0,0,1,2.21,3.17c.1.3-2,1.3-2,1.3s0,4,0,5-5.64,1.15-15.82-4.38C22.76,145.69,30.92,138.05,37.69,136.27Z"/><path class="cls-3" d="M37.88,137.31h0a3.16,3.16,0,0,0-.6-2.91c-2.15-2.56-7.45-7.55-14.52-5.13-10.32,3.52-3.68,16.32-3.68,16.32l3.68.1Z"/><path class="cls-11" d="M30.63,155.88h0A6.26,6.26,0,0,0,26.24,163c1.37,7.85,4.4,22,9.24,28.07,6.89,8.66,26.13-12.52,26.13-12.52l-4.27-4.7s-8.28,6.07-13.57,7.06a144.8,144.8,0,0,1-5.14-20.08A6.29,6.29,0,0,0,30.63,155.88Z"/><path class="cls-12" d="M39.68,192.91a5.15,5.15,0,0,1-4-2c-4.82-6.06-7.84-20.13-9.21-28l-.38.06c1.38,7.89,4.42,22,9.28,28.16a5.55,5.55,0,0,0,4.34,2.15h.24Z"/><ellipse class="cls-3" cx="17.9" cy="131.03" rx="1.93" ry="1.93"/><path class="cls-13" d="M37.58,157.59s-1-9.48-9.81-11.8a18.44,18.44,0,0,0-7.44-.5,6.83,6.83,0,0,0-5.81,7.3h0S29.35,146.54,37.58,157.59Z"/><path class="cls-14" d="M57.85,174.36s1.88-3.63,2.78-4.08a2,2,0,0,1,1.75,0l.82-.62A2.87,2.87,0,0,1,67,170h0a2.83,2.83,0,0,1,.23,3.54,14,14,0,0,1-5.8,4.82Z"/><path class="cls-15" d="M49.68,311.43H49.3L50,250c-.79.17-3,.61-3.76-.05a.76.76,0,0,1-.21-.72c.16-.84,1.64-1.58,3.07-2.29,1-.52,2.24-1.12,2.34-1.54a.2.2,0,0,0,0-.17c-.64-.85-2.57-.25-3.26.06l-.16.07-17.8-32.46.34-.18,17.63,32.15c.61-.25,2.73-1,3.56.12a.62.62,0,0,1,.11.5c-.14.6-1.26,1.15-2.55,1.8s-2.74,1.36-2.86,2a.34.34,0,0,0,.1.36c.49.47,2.49.19,3.64-.1l.24-.06Z"/><path class="cls-15" d="M38,226.72l-.22-.31c7.91-5.62,1.88-18.18,1.82-18.3l.35-.17C40,208.07,46.17,220.91,38,226.72Z"/><polygon class="cls-16" points="124.71 310.65 124.89 315.6 117.24 315.19 116.83 310.23 124.71 310.65"/><polygon class="cls-17" points="95.24 310.45 94.08 315.14 86.27 315.14 87.14 310.69 95.24 310.45"/><path class="cls-3" d="M116.49,314.64H126v2.5l6.91,4.95h2.81a1.46,1.46,0,0,1,1.46,1.45h0a1.46,1.46,0,0,1-1.46,1.46H117.62a1.12,1.12,0,0,1-1.13-1.13Z"/><path class="cls-3" d="M85.74,314.79h8.85l-.84,5.74.66,3.38a.79.79,0,0,1-.78.94H76.69a1.6,1.6,0,0,1,1.19-1.54l1.53-.4A56.88,56.88,0,0,0,85.74,314.79Z"/><polygon class="cls-18" points="111.88 214.86 93.78 212.01 85.64 311.18 96.41 311.18 109.42 228.47 113.55 220.14 111.88 214.86"/><path class="cls-19" d="M126.27,311.18V212.3l-17.08-.15c-3.19.69-5.39,1.25-5.39,1.25l4.93,6.49.69,8.58,6.07,82.71Z"/><path class="cls-20" d="M143.53,221.39s3.09,4.09,3.21,5.85c.07.93-5.25,3.51-6.84,3.56s-2-2.54-2-2.54l-.81-4.57Z"/><path class="cls-21" d="M103.87,150.48a35.25,35.25,0,0,1,.73,6.56l12.05-.73v-7.49l2.83-2.06V143.9l1-.59a.68.68,0,0,0,.24-1L117.33,137l-3.65-.51-7,3.13Z"/><path class="cls-22" d="M122.78,156.88a47.47,47.47,0,0,0-22.85.26,29.9,29.9,0,0,0-11,5.49c-4.7,3.72-12.75,10.23-19.71,16.65A7.12,7.12,0,0,0,67,184.51h0a7.13,7.13,0,0,0,3.81,6.3l21.52,11.3,1.89-9.25-12.43-7.29,12.11-9.51s4.71,14.2-1,35.61c0,0,17,7.21,35.09,0,0,0,.78-12.8,0-17.5l7.17,30.3,9.33-3.34-7.31-35.89s-2.84-13-6.7-21.93A11.21,11.21,0,0,0,122.78,156.88Z"/><path class="cls-23" d="M128,194.37a.19.19,0,0,1-.19-.15l-3.65-15.54a.19.19,0,0,1,.15-.23.18.18,0,0,1,.23.14l3.64,15.54a.19.19,0,0,1-.14.23Z"/><path class="cls-24" d="M94,193.69s3.47.37,2.79,2.64-1.51,1.84-1.17,4.06-1.72,2.13-3.23,1.21Z"/><path class="cls-25" d="M136.57,223.94v3.57a1.81,1.81,0,0,0,.14.69h0a1.7,1.7,0,0,0,2.13.9l3.91-1.7a1,1,0,0,0,.51-1.33h0a1,1,0,0,0-1.08-.57l-2.92.51a4.93,4.93,0,0,0,1-3.37Z"/><path class="cls-3" d="M117.71,136.69l-.38.29a1.71,1.71,0,0,0-.69,1.58l.62,5.52a2.23,2.23,0,0,0,1.29,1.77h0a2,2,0,0,1,1.13,1.76v2.62a1.84,1.84,0,0,1-1.85,1.84h0a1.84,1.84,0,0,1-1.84-1.71l-.73-10.82a1.39,1.39,0,0,0-.54-1h0a1.42,1.42,0,0,0-1.87.13c-.85.87-1.59,2.57.48,5.5v4.4s-3.24,2.39-9.46,1.93c0,0-6.16-5.94-3.52-15.89s15.12-10.45,16.88-9c1.61,1.34-.69,5.48-.69,5.48a3.48,3.48,0,0,1,2.74.11C120.46,131.94,119.28,136,117.71,136.69Z"/><path class="cls-23" d="M93.88,176.26a.19.19,0,0,1-.19-.15,26.55,26.55,0,0,0-2.6-6.87.19.19,0,0,1,0-.27.2.2,0,0,1,.27.06,26.48,26.48,0,0,1,2.66,7,.19.19,0,0,1-.15.23Z"/><path class="cls-15" d="M123.61,311.18l-.71-47.31c-1.24,0-4.39,0-4.73-.85-.09-.23,0-.47.27-.71.88-.81,2.9-.94,4.52-1.05.86-.05,2-.13,2.14-.33.06-.35-1.48-1.05-2.9-1.45l-.14,0v-.15l-.56-45.65h.38l.56,45.51c.91.26,3.18,1,3,1.85-.08.47-.86.54-2.49.65s-3.51.23-4.29.94c-.06.06-.2.2-.17.28.18.43,2.51.66,4.56.61h.19v.19l.71,47.51Z"/><path class="cls-15" d="M122,226.22l-.29-.26c4.21-4.54,4.38-13.57,4.38-13.66h.38C126.46,212.4,126.29,221.58,122,226.22Z"/><rect class="cls-26" x="405.84" width="2" height="32"/><polygon class="cls-27" points="256.84 325 156.84 325 406.84 25 256.84 325"/><g class="cls-28"><rect class="cls-29" x="256.84" y="265" width="400" height="60"/><rect class="cls-30" x="256.84" y="205" width="400" height="60"/><rect class="cls-31" x="256.84" y="145" width="400" height="60"/><rect class="cls-32" x="256.84" y="85" width="400" height="60"/><rect class="cls-33" x="256.84" y="25" width="400" height="60"/></g><polygon class="cls-34" points="407.84 20 407.84 0 427.84 10 407.84 20"/></g></svg>