<svg xmlns="http://www.w3.org/2000/svg" xmlns:xlink="http://www.w3.org/1999/xlink" viewBox="0 0 656.84 325"><defs><linearGradient id="linear-gradient" x1="42.11" y1="295.63" x2="50.45" y2="295.63" gradientTransform="translate(18.01 15.23)" gradientUnits="userSpaceOnUse"><stop offset="0" stop-color="#fac0c0"/><stop offset=".25" stop-color="#f8b9bc"/><stop offset=".62" stop-color="#f3a6b2"/><stop offset="1" stop-color="#eb8ba3"/></linearGradient><linearGradient id="linear-gradient-2" x1="-15.7" y1="211.74" x2="-7.37" y2="211.74" gradientTransform="rotate(11.5 -503.817 350.332)" xlink:href="#linear-gradient"/><linearGradient id="linear-gradient-3" y1="262.13" x2="25.42" y2="262.13" gradientUnits="userSpaceOnUse"><stop offset="0" stop-color="#2d5aa4"/><stop offset="1" stop-color="#134191"/></linearGradient><linearGradient id="linear-gradient-4" x1="10.45" y1="259.34" x2="56.4" y2="259.34" gradientUnits="userSpaceOnUse"><stop offset="0" stop-color="#2450a2"/><stop offset="1" stop-color="#406bb2"/></linearGradient><linearGradient id="linear-gradient-5" x1="1.69" y1="181.88" x2="40.88" y2="181.88" gradientUnits="userSpaceOnUse"><stop offset="0" stop-color="#59b3e4"/><stop offset="1" stop-color="#4fc7ea"/></linearGradient><linearGradient id="linear-gradient-6" x1="22.76" y1="143.43" x2="40.58" y2="143.43" gradientUnits="userSpaceOnUse"><stop offset="0" stop-color="#eb8ba3"/><stop offset="1" stop-color="#fac0c0"/></linearGradient><linearGradient id="linear-gradient-7" x1="26.15" y1="174.36" x2="61.61" y2="174.36" gradientUnits="userSpaceOnUse"><stop offset="0" stop-color="#4fc7ea"/><stop offset="1" stop-color="#59b3e4"/></linearGradient><linearGradient id="linear-gradient-8" x1="26.05" y1="178.11" x2="39.91" y2="178.11" gradientUnits="userSpaceOnUse"><stop offset="0" stop-color="#2c7fc6"/><stop offset="1" stop-color="#3694d1"/></linearGradient><linearGradient id="linear-gradient-9" x1="14.5" y1="151.35" x2="37.58" y2="151.35" xlink:href="#linear-gradient-8"/><linearGradient id="linear-gradient-10" x1="57.85" y1="173.73" x2="67.79" y2="173.73" gradientUnits="userSpaceOnUse"><stop offset="0" stop-color="#ec8fa5"/><stop offset=".27" stop-color="#f1a0af"/><stop offset=".72" stop-color="#f8b7bb"/><stop offset="1" stop-color="#fac0c0"/></linearGradient><linearGradient id="linear-gradient-11" x1="114.44" y1="291.76" x2="122.77" y2="291.76" xlink:href="#linear-gradient"/><linearGradient id="linear-gradient-12" x1="86.27" y1="312.79" x2="95.24" y2="312.79" xlink:href="#linear-gradient"/><linearGradient id="linear-gradient-13" x1="85.64" y1="261.6" x2="113.55" y2="261.6" xlink:href="#linear-gradient-3"/><linearGradient id="linear-gradient-14" x1="103.8" y1="261.66" x2="137.54" y2="261.66" xlink:href="#linear-gradient-4"/><linearGradient id="linear-gradient-15" x1="137.09" y1="226.09" x2="146.74" y2="226.09" xlink:href="#linear-gradient"/><linearGradient id="linear-gradient-16" x1="103.87" y1="146.75" x2="120.86" y2="146.75" gradientUnits="userSpaceOnUse"><stop offset="0" stop-color="#fac0c0"/><stop offset=".31" stop-color="#f4abb4"/><stop offset=".73" stop-color="#ed94a8"/><stop offset="1" stop-color="#eb8ba3"/></linearGradient><linearGradient id="linear-gradient-17" x1="66.98" y1="190.04" x2="144.46" y2="190.04" gradientUnits="userSpaceOnUse"><stop offset="0" stop-color="#00bf84"/><stop offset=".57" stop-color="#00d791"/><stop offset="1" stop-color="#00e599"/></linearGradient><linearGradient id="linear-gradient-18" x1="92.42" y1="197.95" x2="96.91" y2="197.95" xlink:href="#linear-gradient-6"/><linearGradient id="linear-gradient-19" x1="136.57" y1="225.92" x2="143.35" y2="225.92" xlink:href="#linear-gradient-16"/><clipPath id="clip-path"><path fill="none" d="M656.84 325h-400l150-300 250 300z"/></clipPath><style>.cls-3{fill:#003}.cls-6{fill:#a3a3cc}.cls-15{fill:#0e3772}.cls-23{fill:#0c9}</style></defs><g id="objects"><path fill="url(#linear-gradient)" d="M52.29 310.65l.17 4.95-7.65-.41-.41-4.96 7.89.42z"/><path class="cls-3" d="M44.06 314.64h9.56v2.5l6.91 4.95h2.8a1.45 1.45 0 011.46 1.45 1.46 1.46 0 01-1.46 1.46H45.19a1.13 1.13 0 01-1.13-1.13z"/><path fill="url(#linear-gradient-2)" d="M10.45 311.25l-.56 4.91-7.5-1.53.32-4.96 7.74 1.58z"/><path class="cls-3" d="M1.51 314.64h9.55v2.5l6.94 4.95h2.81a1.46 1.46 0 011.46 1.45 1.46 1.46 0 01-1.49 1.46H2.64a1.12 1.12 0 01-1.13-1.13z"/><path fill="#c7e5f2" d="M64.9 170.8l-16.36-5.98-13.11 13.56 14.63 6.73L64.9 170.8z"/><path class="cls-6" d="M59.55 170.83L49 167a.21.21 0 00-.25.12.19.19 0 00.12.24l10.53 3.85h.06a.19.19 0 00.18-.12.19.19 0 00-.09-.26zM57.91 172.91l-10.52-3.85a.19.19 0 10-.14.36l10.53 3.85h.07a.19.19 0 00.18-.13.18.18 0 00-.12-.23zM56.14 175l-10.52-3.85a.19.19 0 00-.25.11.19.19 0 00.11.25L56 175.4h.07a.19.19 0 00.18-.13.18.18 0 00-.11-.27z"/><path fill="url(#linear-gradient-3)" d="M14.65 212.89h-4.2l-7.31 1.34 2.51 40.43L0 311.37h12.08l10.83-58.95 2.51-30.33-5.84-6.91-4.93-2.29z"/><path d="M40.88 207.31l-30.43 5.58 1 2.29 7.17 2.69 6.56 7.72L41 248.86l1.59 62.51h11L56.38 248a17.36 17.36 0 00-1.4-7.73z" fill="url(#linear-gradient-4)"/><path d="M14.52 152.59s-18 22.72-11.38 61.64c0 0 20.07 4.73 37.74-6.92V196s-2.33-34.74-3.3-38.38c0 0-2.92-6.35-8.91-8.51s-14.15 3.48-14.15 3.48z" fill="url(#linear-gradient-5)"/><path d="M37.69 136.27s.6 3.25.68 4.37a23.5 23.5 0 012.21 3.17c.1.3-2 1.3-2 1.3v5c0 1-5.64 1.15-15.82-4.38 0-.04 8.16-7.68 14.93-9.46z" fill="url(#linear-gradient-6)"/><path class="cls-3" d="M37.88 137.31a3.16 3.16 0 00-.6-2.91c-2.15-2.56-7.45-7.55-14.52-5.13-10.32 3.52-3.68 16.32-3.68 16.32l3.68.1z"/><path d="M30.63 155.88a6.26 6.26 0 00-4.39 7.12c1.37 7.85 4.4 22 9.24 28.07 6.89 8.66 26.13-12.52 26.13-12.52l-4.27-4.7s-8.28 6.07-13.57 7.06a144.8 144.8 0 01-5.14-20.08 6.29 6.29 0 00-8-4.95z" fill="url(#linear-gradient-7)"/><path d="M39.68 192.91a5.15 5.15 0 01-4-2c-4.82-6.06-7.84-20.13-9.21-28l-.38.06c1.38 7.89 4.42 22 9.28 28.16a5.55 5.55 0 004.34 2.15h.24z" fill="url(#linear-gradient-8)"/><circle class="cls-3" cx="17.9" cy="131.03" r="1.93"/><path d="M37.58 157.59s-1-9.48-9.81-11.8a18.44 18.44 0 00-7.44-.5 6.83 6.83 0 00-5.81 7.3s14.83-6.05 23.06 5z" fill="url(#linear-gradient-9)"/><path d="M57.85 174.36s1.88-3.63 2.78-4.08a2 2 0 011.75 0l.82-.62a2.87 2.87 0 013.8.34 2.83 2.83 0 01.23 3.54 14 14 0 01-5.8 4.82z" fill="url(#linear-gradient-10)"/><path class="cls-15" d="M49.68 311.43h-.38L50 250c-.79.17-3 .61-3.76-.05a.76.76 0 01-.21-.72c.16-.84 1.64-1.58 3.07-2.29 1-.52 2.24-1.12 2.34-1.54a.2.2 0 000-.17c-.64-.85-2.57-.25-3.26.06l-.16.07-17.8-32.46.34-.18 17.63 32.15c.61-.25 2.73-1 3.56.12a.62.62 0 01.11.5c-.14.6-1.26 1.15-2.55 1.8s-2.74 1.36-2.86 2a.34.34 0 00.1.36c.49.47 2.49.19 3.64-.1l.24-.06z"/><path class="cls-15" d="M38 226.72l-.22-.31c7.91-5.62 1.88-18.18 1.82-18.3l.35-.17c.05.13 6.22 12.97-1.95 18.78z"/><path fill="url(#linear-gradient-11)" d="M124.71 310.65l.18 4.95-7.65-.41-.41-4.96 7.88.42z"/><path fill="url(#linear-gradient-12)" d="M95.24 310.45l-1.16 4.69h-7.81l.87-4.45 8.1-.24z"/><path class="cls-3" d="M116.49 314.64H126v2.5l6.91 4.95h2.81a1.46 1.46 0 011.46 1.45 1.46 1.46 0 01-1.46 1.46h-18.1a1.12 1.12 0 01-1.13-1.13zM85.74 314.79h8.85l-.84 5.74.66 3.38a.79.79 0 01-.78.94H76.69a1.6 1.6 0 011.19-1.54l1.53-.4a56.88 56.88 0 006.33-8.12z"/><path fill="url(#linear-gradient-13)" d="M111.88 214.86l-18.1-2.85-8.14 99.17h10.77l13.01-82.71 4.13-8.33-1.67-5.28z"/><path d="M126.27 311.18V212.3l-17.08-.15c-3.19.69-5.39 1.25-5.39 1.25l4.93 6.49.69 8.58 6.07 82.71z" fill="url(#linear-gradient-14)"/><path d="M143.53 221.39s3.09 4.09 3.21 5.85c.07.93-5.25 3.51-6.84 3.56s-2-2.54-2-2.54l-.81-4.57z" fill="url(#linear-gradient-15)"/><path d="M103.87 150.48a35.25 35.25 0 01.73 6.56l12.05-.73v-7.49l2.83-2.06v-2.86l1-.59a.68.68 0 00.24-1l-3.39-5.31-3.65-.51-7 3.13z" fill="url(#linear-gradient-16)"/><path d="M122.78 156.88a47.47 47.47 0 00-22.85.26 29.9 29.9 0 00-11 5.49c-4.7 3.72-12.75 10.23-19.71 16.65a7.12 7.12 0 00-2.22 5.23 7.13 7.13 0 003.81 6.3l21.52 11.3 1.89-9.25-12.43-7.29 12.11-9.51s4.71 14.2-1 35.61c0 0 17 7.21 35.09 0 0 0 .78-12.8 0-17.5l7.17 30.3 9.33-3.34-7.31-35.89s-2.84-13-6.7-21.93a11.21 11.21 0 00-7.7-6.43z" fill="url(#linear-gradient-17)"/><path class="cls-23" d="M128 194.37a.19.19 0 01-.19-.15l-3.65-15.54a.19.19 0 01.15-.23.18.18 0 01.23.14l3.64 15.54a.19.19 0 01-.14.23z"/><path d="M94 193.69s3.47.37 2.79 2.64-1.51 1.84-1.17 4.06-1.72 2.13-3.23 1.21z" fill="url(#linear-gradient-18)"/><path d="M136.57 223.94v3.57a1.81 1.81 0 00.14.69 1.7 1.7 0 002.13.9l3.91-1.7a1 1 0 00.51-1.33 1 1 0 00-1.08-.57l-2.92.51a4.93 4.93 0 001-3.37z" fill="url(#linear-gradient-19)"/><path class="cls-3" d="M117.71 136.69l-.38.29a1.71 1.71 0 00-.69 1.58l.62 5.52a2.23 2.23 0 001.29 1.77 2 2 0 011.13 1.76v2.62a1.84 1.84 0 01-1.85 1.84 1.84 1.84 0 01-1.84-1.71l-.73-10.82a1.39 1.39 0 00-.54-1 1.42 1.42 0 00-1.87.13c-.85.87-1.59 2.57.48 5.5v4.4s-3.24 2.39-9.46 1.93c0 0-6.16-5.94-3.52-15.89s15.12-10.45 16.88-9c1.61 1.34-.69 5.48-.69 5.48a3.48 3.48 0 012.74.11c1.18.74 0 4.8-1.57 5.49z"/><path class="cls-23" d="M93.88 176.26a.19.19 0 01-.19-.15 26.55 26.55 0 00-2.6-6.87.19.19 0 010-.27.2.2 0 01.27.06 26.48 26.48 0 012.66 7 .19.19 0 01-.15.23z"/><path class="cls-15" d="M123.61 311.18l-.71-47.31c-1.24 0-4.39 0-4.73-.85-.09-.23 0-.47.27-.71.88-.81 2.9-.94 4.52-1.05.86-.05 2-.13 2.14-.33.06-.35-1.48-1.05-2.9-1.45h-.14v-.15l-.56-45.65h.38l.56 45.51c.91.26 3.18 1 3 1.85-.08.47-.86.54-2.49.65s-3.51.23-4.29.94c-.06.06-.2.2-.17.28.18.43 2.51.66 4.56.61h.19v.19l.71 47.51z"/><path class="cls-15" d="M122 226.22l-.29-.26c4.21-4.54 4.38-13.57 4.38-13.66h.38c-.01.1-.18 9.28-4.47 13.92z"/><path fill="#ccf" d="M405.84 0h2v32h-2z"/><path fill="#00a576" d="M256.84 325h-100l250-300-150 300z"/><g clip-path="url(#clip-path)"><path fill="#00bf84" d="M256.84 265h400v60h-400z"/><path fill="#0c8" d="M256.84 205h400v60h-400z"/><path fill="#00d890" d="M256.84 145h400v60h-400z"/><path fill="#00e599" d="M256.84 85h400v60h-400z"/><path fill="#00f2a1" d="M256.84 25h400v60h-400z"/></g><path fill="#e6e6ff" d="M407.84 20V0l20 10-20 10z"/></g></svg>